# xmcd
#
# Track frame offsets:
#	150
#	17070
#	34027
#	50832
#	67232
#	84521
#	102879
#	120549
#	137258
#	156515
#	173435
#	190392
#	207197
#	223597
#	240886
#	259244
#	276914
#	293623
#
# Disc length: 4171
#
# Revision: 1
# Processed by: cddbd v1.5.2PL0 Copyright (c) Steve Scherf et al.
# Submitted via: kJams Pro 1.0b2
#
DISCID=02104912
DTITLE=Various Artist - Pop Hits Monthly Chart Hits Country May 2013
DYEAR=2013
DGENRE=Country
TTITLE0=Band Perry, The - Done
TTITLE1=Keith, Toby - Hope On The Rocks
TTITLE2=Corbin, Easton - This Feels A Lot Like Love
TTITLE3=Miller, Marie - You're Not Alone
TTITLE4=James, Mickie - Somebody's Gonna Pay
TTITLE5=Florida Georgia Line - Party People
TTITLE6=Rose, Amy - I Just Want You To Know
TTITLE7=Little Big Town - Front Porch Thing
TTITLE8=Josh Abbot Band - I'll Sing About Mine
TTITLE9=Band Perry, The - Done (W§ Vocals)
TTITLE10=Keith, Toby - Hope On The Rocks (W§ Vocals)
TTITLE11=Corbin, Easton - This Feels A Lot Like Love (W§ Vocals)
TTITLE12=Miller, Marie - You're Not Alone (W§ Vocals)
TTITLE13=James, Mickie - Somebody's Gonna Pay (W§ Vocals)
TTITLE14=Florida Georgia Line - Party People (W§ Vocals)
TTITLE15=Rose, Amy - I Just Want You To Know (W§ Vocals)
TTITLE16=Little Big Town - Front Porch Thing (W§ Vocals)
TTITLE17=Josh Abbot Band - I'll Sing About Mine (W§ Vocals)
EXTD=
EXTT0=
EXTT1=
EXTT2=
EXTT3=
EXTT4=
EXTT5=
EXTT6=
EXTT7=
EXTT8=
EXTT9=
EXTT10=
EXTT11=
EXTT12=
EXTT13=
EXTT14=
EXTT15=
EXTT16=
EXTT17=
PLAYORDER=
